<?xml version="1.0" encoding="utf-8"?>
<!-- Generator: Adobe Illustrator 20.0.0, SVG Export Plug-In . SVG Version: 6.00 Build 0)  -->
<svg version="1.1" id="Layer_1" xmlns="http://www.w3.org/2000/svg" xmlns:xlink="http://www.w3.org/1999/xlink" x="0px" y="0px"
	 viewBox="0 0 1074 880" style="enable-background:new 0 0 1074 880;" xml:space="preserve">
<style type="text/css">
	.st0{fill:#3B491F;}
</style>
<path class="st0" d="M133.7,191.5c0.9-1.6,2.3-2.5,3.3-3.9c2-3,0.3-5-1.1-7.9c-1.5-2.9-2.9-6-3.1-9.3c-0.1-3,0.9-5.6-0.4-8.4
	c-1.5-3.4-3.7-4.4-7.1-5.2c-2.9-0.6-5.6-1.4-8.6-0.6c-1.3,0.3-2.4,1.4-3.8,1.4c-0.8,0-1.4-0.6-2.1-0.6c-0.7-0.6-1.5-0.3-2.5,0.8
	c-2.2,0-2.9,0.5-2,1.5c0-0.1,0.7,1.5,0.7,1.5c0.8,3.3-3.6,6.7-2.6,9.8c1.6-0.5,3.1-1.5,4.6-2.2c1-0.5,2.3,0.1,2.3,1.3
	c-0.2,5.4-1,11.3-5.7,14.8c-2.1,1.6-3.9,1.3-6.4,1.4c-7.5,0.3-1.9,8.4-0.3,11.9c0.2,0.1,0.4,0.2,0.6,0.3c1.2,1,4.7-4.1,6.7-4.2
	c1.1,0,5.3,2.3,4.1,3.8c0.5-0.6,1.3-1,2.1-0.5c1.2,0.7,1.6,1.4,2.4,2.4c1.3,1.5,3.3,3.1,5.7,3c1.5-0.1,3.4-2.2,4.6-3.1
	c1-0.7,1.8-1.2,2.8-1.8C130.9,196,132.3,194.2,133.7,191.5z"/>
<path class="st0" d="M143.9,168.2c3.9,0.6,8.2-1.8,11.9-3.1c3.7-1.3,6-4.6,9.1-6.9c2-1.5,3.7-3.5,4-6.1c1-8.5-1-2.9-1.9-6.2
	c-0.8-2.5-0.5-3.1,0-5.7c0.7-4.4-2.3-6.2-5.9-8.2c-2.3-1.2-4.3-2.5-6-4.5c-2.4-2.9-2.8-6.5-4.9-9.4c-3.8-5.4-9-0.9-13.2,0.6
	c-3.1,1-6.2,0.4-9.3,1.3c-5.5,1.5-9.1,6.9-7.3,12.6c1.1,3.4,3.9,5,5.5,7.9c1.1,2,1.9,6,1.4,8.4c-0.6,3.3-2.8,5.3-3.2,8.5
	c6-0.2,5.4,6.4,10.5,8.2C137.4,166.5,141,167.7,143.9,168.2z"/>
<path class="st0" d="M174.7,292.7c-0.3-3.4-2.5-5.8-1.7-9.3c0.6-2.5,2.1-4,2.3-6.9c0.2-2.6-0.7-5.2-1.2-7.7c-0.5-2-0.7-4.1-1.2-6.1
	c-0.6-2.7-2.2-4.5-3.3-6.9c-1.3-2.7-1.6-5.6-1.8-8.5c-1.9,0.2-3.6,0.8-5.5,0.7c-1.7-0.1-7.5-2.7-8.3-0.6c-0.6,1.5-3,1.4-2.9-0.4
	c0-2.1,0.7-6-1.8-7.1c-0.7-0.3-2.5,0-3.3,0.1c-2.9,0.1-7.4-0.3-4.9,3.8c1.9,3.2,3.9,4.3,3.7,8.5c-0.1,1.2-0.5,2.5-0.4,3.7
	c0.1,1.6,1.4,3,1.8,4.5c0.3,1.1,0.7,2.2,0.3,3.4c-0.6,1.7-2.3,2.5-3.9,1.7c-0.6-0.3-0.9-1.1-1.5-1.4c-1.6-0.8-3.7,0.2-5.2,0.6
	c-1.2,0.3-2.2,1-3.5,0.8c-1.7-0.2-2.5-1.1-3.6-2.3c-2.1-2.4-3.9-4.3-7.4-4.1c-2.8,0.2-4.2,2.1-6.4,3.4c-1.7,1-3.6,0.7-5.4,0.9
	c-2.8,0.3-6.2,1.4-8.2,3.6c-1.5,1.6-2.1,3.3-0.8,5c0.8,1,2.2,1.5,3.3,2c0.8,0.4,0.9,1.4,0.5,2.1c-0.3,0.6-1.5,1.5-1.7,1.9
	c-1.3,3.1,0.8,5.7,3.3,7c3.1,1.7,6.9,0.3,10.1,1.6c1.3,0.5,2.3,1.6,3.5,2.2c3.3,1.6,3.8,0.4,6.4,1.2c0.7,0.2,1.4,0.7,2,1.1
	c2.9,2,3.9,2.9,8.1,3.5c2,0.3,2.8,0.6,4.7,1.7c4.9,2.6,8.9,1.1,13.5-0.8c3.6-1.5,7-1.5,10.9-1.1c1.9,0.2,3.8,0.3,5.6,0.5
	c1.3,0.1,2.5,0.2,3.8,0.3c1.7,0.6,2.3,0.3,1.8-0.9C175.7,294.2,174.8,293.8,174.7,292.7z"/>
<path class="st0" d="M222.4,378.6c0.6-4.2,1.2-8.4,1.9-12.6c0.8-4.9,2-10,2.1-14.9c0.1-1.4,0-2.8-0.3-4.2c-2.9-1.3-4.8-0.8-5.8,1.5
	c-1.5,1.5-2.6,3.9-3.9,5.6c-4.1,5.4-9.2,12.1-16,14.3c-3.6,1.1-7.5,0.7-11.3,0.5c-4.5-0.2-8.4,0-9.2,5.3c-0.3,2.1-0.1,4.4,0,6.6
	c0.1,3.9,0.1,7.9-0.9,11.7c-1,3.8-4.7,7-5.3,10.8c2,2.2,5.6,2.9,8,4.6c2.4,1.7,5.4,2.7,8.1,4.2c2.4,1.4,4.7,1.6,7.4,2.2
	c1.5,0.3,5.3,2.3,6.7,1.7c2.6-0.9,1-7.4,2.5-9.7c2.1-3.1,5.3-6,8.3-8.2c1-0.7,2-1.7,3.2-2c0.6-0.3,1.2-0.5,1.8-0.6
	c1.3,0.7,1.7,0.1,1.2-1.7c0.7-2.1,0.4-5.3,0.6-7.6C221.7,383.7,222.1,381.1,222.4,378.6z"/>
<path class="st0" d="M156.8,422.3c1.2-2.9,1.1-6,2-9.1c0.6-2.2,1.7-4.3,3-6.2c0.7-1.1,1.9-2.2,2.4-3.4c1.3-1.2,1.4-2.6,0.3-4.3
	c0.4-2.2-0.2-3.2-2-3.1c-1.8-0.8-4.1-0.3-6-1.4c-1.7-0.9-2.8-2.4-4.2-3.7c-5.5-5.1-10.9-3.4-17.6-2.8c-2.4,0.2-4.6-0.4-7-0.4
	c-2,0-3.5,1.3-5.4,1.5c-1.8,0.2-3.6-0.7-5.1-1.6c-0.9-0.5-1.7-1.4-2.6-1.7c-3.3-1.3-5.4,0.7-8,1.7c-3.9,1.6-8,1.8-12.2,2
	c0.1,10.7-0.4,22.1-7.2,30.8c-2.3,2.9-5.2,5.2-6.3,8.9c-1.2,3.8-0.4,7.4,1.2,10.9c0.8,1.7,1.5,3.6,3.3,4.5c1.2,0.6,3.4,0.3,4.7,0.3
	c4.5,0.2,7.2-1.9,9.5-5.5c2.1-3.5,3.6-7.9,7.6-9.6c5.1-2.1,12-1.7,17.4-1.8c4-0.1,6.8,0.5,9.8,3.1c2.1,1.8,4.2,3.8,5.9,5.9
	c1.4,1.8,2.5,5.1,4.6,6.2c1.9-5,4.3-9.5,7.3-13.9C154,427.4,155.7,425,156.8,422.3z"/>
<path class="st0" d="M83.3,481.4c2-0.9,3.7-4,3.4-6c-0.2-1.2-1.1-2.5-1.5-3.7c-1.4-3.8-1.6-7.5-1.8-11.5c-0.1-1.9-0.1-3.5-1.2-5.1
	c-1.4-1.8-0.8-0.7-2.2-1.5c-1.2-0.7-2.3-1.2-3.4-2.2c-1.9-1.9-3.8-6.1-7.2-4.4c-1,0.5-1.7,1.7-2.8,2.2c-0.6,0.2-1.4,0.3-1.8-0.2
	c-2.3-2.8-2.6-4.2-6.9-4.3c-3.6-0.1-7.3-0.2-10.9-0.2c-2.8,0-5.5-0.1-7.7,2.1c-1.1,1.1-1.8,4.1-2.2,5.7c-1.1,3.7-1.5,7.4-2,11.2
	c-0.8,5.6-3.1,8.5-6,13c-1.8,2.8-1.6,6.6-2.2,9.8c-0.5,2.3-3,1.4-0.7,5.1c0.6,0.9,2.5,2,3.4,2.7c0.6,0.4,0.6,1,0.4,1.5
	c4.6-1.1,8.1-7.2,11.2-10.3c2.4-2.4,5-4.4,8.2-5.5c8.3-2.8,17.1-0.9,25.3,0.9C76.6,481,81,482.4,83.3,481.4z"/>
<path class="st0" d="M124.2,537.3c-1.4-2-2.9-5-4.7-6.6c-2.1-1.8-3.2-0.9-4.1-3.4c-1-2.7,0.6-2.8-2.2-5.6c-1.6-1.6-3.9-2.7-6-3.3
	c-6.6-2-15.5-1.9-22.2-0.4c-7.9,1.7-15,9.2-17.6,16.7c-0.1,0.4-0.4,0.7-0.7,0.8c-0.4,4.1,1.8,8.5,4,11.8c1.6,2.4,4.6,3.1,7.2,4.3
	c2.9,1.2,3.5,0.4,5.5-2.1c0.7-0.8,1.1-1.8,1.8-2.6c1.6-1.9,3.6-3.4,5.8-4.5c4.8-2.3,9.9-1.7,15-0.6c2.9,0.7,6,1.4,8.6,2.8
	c0.9,0.5,1.7,1.5,2.6,1.9c1.6,0.7,2.3-0.1,3.8-0.3c2.3-0.4,3.9,0.4,5.3-2.9C127.5,540.9,125.6,539.2,124.2,537.3z"/>
<path class="st0" d="M170,475.7c1.6-2.1,1.5-3.7-0.3-4.7c-1-1.8-2.6-1.9-1.8-4.2c0.4-1.1,1.6-1.7,2-2.7c2-5.1-2.4-6.7-6.1-7
	c-2.7-0.2-4.9,0.1-7.2-1.6c-3-2.2-3.7-6.1-6-8.9c-1.5-1.9-3.5-3.2-5.5-4.6c-1-0.6-2-1.3-3-1.9c-3.1,0.4-4.5,1.8-4,4.2
	c-0.1,0.2-0.4,3.3-0.4,3.5c-0.5,2.1-1.5,4-1.9,6.1c-0.8,4,0.3,8.2-0.2,12.3c-0.4,3.3-1.4,6.5-2.9,9.5c-2.6,5-6.5,7.7-5.5,14.1
	c0.3,2.3,1.3,4.7,2,6.9c1.2,3.5,2.2,5.7,6.2,6.7c3.3,0.8,7.4-0.2,10.9,0.3c4.1,0.6,8.1,1.7,12,2.9c0.1-0.1,0.2-0.2,0.4-0.2
	c1.1-0.5-1.4-3.7-1.7-4.2c-0.6-1.5-0.9-3-0.8-4.6c0.1-2.8,1.2-5.3,2.7-7.5c1.9-2.8,2.6-5.1,5-7.6c1.5-1.5,2.9-3,4.3-4.5
	C168.9,477.1,169.4,476.4,170,475.7z"/>
<path class="st0" d="M225.7,344.3c2.5-5.8-1.5-6.2-3.9-9.6c-2-2.9-1.2-6.4-3.1-9.4c-1.1-1.7-1.8-2.3-2-4.4c-0.3-2.9-0.6-4.9-1.8-7.7
	c-0.4-1-0.9-2-1.2-3.1c-0.5-1.6,0-3.2-1.5-4c-1.6-0.9-4,0.5-5.6,1.1c-4.2,1.6-8.1,3.4-11.5,6.5c-2.9,2.6-5.4,5.6-8,8.4
	c-3,3.2-7.1,6.6-9.3,10.4c-2,3.5-2.1,8.4-2.8,12.2c-0.3,1.7-1.4,4.5-1.1,6.2c0.6,4.3,1.4,2.4,3.2,3.9c2.2,1.8,3.9,2.8,5,5.6
	c1.3,3.2,0.7,6.9,3.6,9.4c0.3,0.3,0.5,0.6,0.5,0.9c4.1,0.7,8.3,1.1,12.4,0.3c5.1-1,8.4-4.1,11.8-7.8c2.8-3.1,5.6-6.2,8.3-9.4
	C220.8,351,224.2,347.8,225.7,344.3z"/>
<path class="st0" d="M212,304.6c0.4-1.2-0.3-1.9-0.3-3c-0.1-1.7,0.1-3.4,0-5.1c-0.2-2.7-1.4-5.2-3.7-6.8c-0.9-0.6-5-1.8-6.2-1.4
	c-0.8,0.3-1.9,1.7-2.8,2.3c-5.9,4.1-12.6,2.8-19.4,2.3c-3.2-0.2-5.8,0.2-9,0.8c-1.2,0.2-2.2,0.6-3.5,0.5c-3.5-0.4-3.2-1.6-8.1-1
	c-0.9,0.1-1.8,0.4-2.7,0.4c-2.7,0.1-4.9-0.2-7.5,0.9c-2.3,0.9-3.4,2.6-5.3,3.9c-0.6,0.4-1.1,0.8-1.8,0.9c-2.6,0.4-1.6-1.4-4.3,1.3
	c-3.3,3.4-0.3,5.4,1.1,8.7c0.5,1,0.5,1.8,0.9,2.9c0.8,2.4,1.8,4,4.1,5.4c1,0.6,2.1,0.9,3,1.7c4.1,3.4,4.7,8.8,2.3,13.2
	c1.2,3.5,5.7,5,8,7.7c2.3,2.8,3.4,6.4,4.6,9.7c1,2.8,2.1,3,4.8,2.9c1.4,0,3.4,0.2,4.6,0c2.7-0.5,4.5-1.6,4.9-4.1
	c0.1-0.7,0.2-1.4,0.4-2.1c0.5-1.8,1.3-3.4,2.3-5c2.4-4,3.4-7.6,4.8-12c0.8-2.6,2.3-4.6,4.2-6.5c6.1-6,13.7-10.4,20.6-15.4
	C208.9,307.1,211.6,305.7,212,304.6z"/>
<path class="st0" d="M96.3,401.8c0.3-2.6,0.2-5.6-0.3-8.1c-0.4-2,0.4-3.4-2.1-5.1c-0.3-0.2-1.2,0-1.6-0.1c-1.5-0.5-2.8-1.3-4.3-1.8
	c-1.2-0.4-2.6-0.8-3.9-0.7c-0.3,0-0.8,0.7-1.2,0.7c-0.9,0.1-1.4-0.1-2.2-0.2c-1.7-0.2-3.8-0.5-5.8,0c-2.1,0.6-3.9,1.3-5.9,0.1
	c-1-0.6-1.2-1.4-2-2.2c-2.1-2.3-4.6-2.7-7.5-2.5c-2.8,0.1-5.8,0.7-7.9,2.7c-1.4,1.4-1.9,3.3-3.2,4.7c-1.8,1.9-3.2,1.9-5.6,1.7
	c-2.2-0.2,1-1.2-3.2,0.2c-2.3,0.8-2.9,1.4-4,3.6c-0.9,1.9-1.3,3.9-1.2,6c0.1,4.7,2.1,9.2,3.8,13.5c1.1,2.8,2.2,5.5,1.2,8.5
	c-0.9,2.8-2.5,4.4-1.8,7.7c0.3,1.4,1.3,2.6,1.5,4c0.5,3.4-2.6,6.2,0.1,9.3c0.1,0.2,0.2,0.3,0.3,0.5c5,1.2,10.1,1.8,15.2,1.7
	c3.6-0.1,5.6-0.8,8.4,1.6c0.4,0.3,0.5,1,0.9,1.2c2.4,1.4,0.8,0.4,2.3-0.1c1.3-0.5,1.8-1.1,3.2-1.3c1.1-0.1,2.3,0,3.3,0.4
	c0.5,0.2,1.4,1.1,2,1.2c2.1,0.3,2.6-1,3.8-1.9c1.5-1.2,4.1-3.7,4.9-5.5c0.7-1.8-0.1-4.2-0.1-6.1c-0.1-3.1,0.5-6.2,1.9-9
	c2.2-4.4,5.5-7.8,7.4-12.3C94.3,410.1,95.9,405.9,96.3,401.8z"/>
</svg>
