<?xml version="1.0" encoding="utf-8"?>
<!-- Generator: Adobe Illustrator 20.0.0, SVG Export Plug-In . SVG Version: 6.00 Build 0)  -->
<svg version="1.1" id="Layer_1" xmlns="http://www.w3.org/2000/svg" xmlns:xlink="http://www.w3.org/1999/xlink" x="0px" y="0px"
	 viewBox="0 0 1074 880" style="enable-background:new 0 0 1074 880;" xml:space="preserve">
<image style="overflow:visible;" width="22" height="23" id="stonehenge" xlink:href="wonder.png"  transform="matrix(0.4545 0 0 0.4348 136.417 192.25)">
</image>
<image style="overflow:visible;" width="22" height="23" xlink:href="wonder.png"  transform="matrix(0.4545 0 0 0.4348 73.667 534.75)">
</image>
<image style="overflow:visible;" width="22" height="23" xlink:href="wonder.png"  transform="matrix(0.4545 0 0 0.4348 347.667 432.5)">
</image>
<image style="overflow:visible;" width="22" height="23" xlink:href="wonder.png"  transform="matrix(0.4545 0 0 0.4348 344.667 523.5)">
</image>
<image style="overflow:visible;" width="22" height="23" xlink:href="wonder.png"  transform="matrix(0.4545 0 0 0.4348 459.667 449)">
</image>
<image style="overflow:visible;" width="22" height="23" xlink:href="wonder.png"  transform="matrix(0.4545 0 0 0.4348 445.167 488.25)">
</image>
<image style="overflow:visible;" width="22" height="23" xlink:href="wonder.png"  transform="matrix(0.4545 0 0 0.4348 511.917 410.25)">
</image>
<image style="overflow:visible;" width="22" height="23" xlink:href="wonder.png"  transform="matrix(0.4545 0 0 0.4348 550.917 494.75)">
</image>
<image style="overflow:visible;" width="22" height="23" xlink:href="wonder.png"  transform="matrix(0.4545 0 0 0.4348 540.917 518)">
</image>
<image style="overflow:visible;" width="22" height="23" xlink:href="wonder.png"  transform="matrix(0.4545 0 0 0.4348 546.167 631.75)">
</image>
<image style="overflow:visible;" width="22" height="23" xlink:href="wonder.png"  transform="matrix(0.4545 0 0 0.4348 566.667 650)">
</image>
<image style="overflow:visible;" width="22" height="23" xlink:href="wonder.png"  transform="matrix(0.4545 0 0 0.4348 523.167 674.5)">
</image>
<image style="overflow:visible;" width="22" height="23" xlink:href="wonder.png"  transform="matrix(0.4545 0 0 0.4348 625.417 479.75)">
</image>
<image style="overflow:visible;" width="22" height="23" xlink:href="wonder.png"  transform="matrix(0.4545 0 0 0.4348 845.417 508.5)">
</image>
<image style="overflow:visible;" width="22" height="23" xlink:href="wonder.png"  transform="matrix(0.4545 0 0 0.4348 803.417 538.75)">
</image>
<image style="overflow:visible;" width="22" height="23" xlink:href="wonder.png"  transform="matrix(0.4545 0 0 0.4348 769.917 589.5)">
</image>
<image style="overflow:visible;" width="22" height="23" xlink:href="wonder.png"  transform="matrix(0.4545 0 0 0.4348 864.917 591)">
</image>
<image style="overflow:visible;" width="22" height="23" xlink:href="wonder.png"  transform="matrix(0.4545 0 0 0.4348 922.917 570.75)">
</image>
</svg>
